<svg width="105" height="105" viewBox="0 0 105 105" fill="none" xmlns="http://www.w3.org/2000/svg">
<rect width="105" height="105" fill="#C4C4C4"/>
<path d="M52.5 10.5C29.3055 10.5 10.5 29.3055 10.5 52.5C10.5 72.1805 24.052 88.648 42.322 93.205C42.126 92.638 42 91.98 42 91.1645V83.986C40.2955 83.986 37.4395 83.986 36.722 83.986C33.8485 83.986 31.2935 82.7505 30.0545 80.4545C28.679 77.903 28.441 74.0005 25.032 71.6135C24.0205 70.819 24.7905 69.9125 25.956 70.035C28.1085 70.644 29.8935 72.121 31.5735 74.312C33.2465 76.5065 34.034 77.0035 37.1595 77.0035C38.675 77.0035 40.943 76.916 43.078 76.58C44.226 73.6645 46.2105 70.98 48.636 69.713C34.65 68.2745 27.9755 61.3165 27.9755 51.87C27.9755 47.803 29.708 43.869 32.6515 40.5545C31.6855 37.2645 30.471 30.555 33.0225 28C39.3155 28 43.12 32.081 44.0335 33.1835C47.1695 32.109 50.6135 31.5 54.2325 31.5C57.8585 31.5 61.3165 32.109 64.4595 33.1905C65.3625 32.095 69.1705 28 75.4775 28C78.0395 30.5585 76.811 37.296 75.8345 40.579C78.7605 43.8865 80.4825 47.81 80.4825 51.87C80.4825 61.3095 73.8185 68.264 59.8535 69.7095C63.6965 71.715 66.5 77.35 66.5 81.5955V91.1645C66.5 91.5285 66.4195 91.791 66.3775 92.1025C82.7435 86.366 94.5 70.826 94.5 52.5C94.5 29.3055 75.6945 10.5 52.5 10.5Z" fill="black"/>
</svg>
