<svg width="105" height="105" viewBox="0 0 105 105" fill="none" xmlns="http://www.w3.org/2000/svg">
<path d="M52.5 0C23.5069 0 0 23.5069 0 52.5C0 81.4931 23.5069 105 52.5 105C81.4931 105 105 81.4931 105 52.5C105 23.5069 81.4931 0 52.5 0ZM32.795 23.6381C36.4788 23.6381 38.9331 26.0925 38.9331 29.365C38.9331 32.6375 36.4787 35.0919 32.3881 35.0919C28.7044 35.0962 26.25 32.6375 26.25 29.365C26.25 26.0925 28.7044 23.6381 32.795 23.6381ZM39.375 74.375H26.25V39.375H39.375V74.375ZM83.125 74.375H70.77V55.2475C70.77 49.9581 67.4756 48.7375 66.2419 48.7375C65.0081 48.7375 60.8869 49.5513 60.8869 55.2475C60.8869 56.0613 60.8869 74.375 60.8869 74.375H48.125V39.375H60.8912V44.2575C62.5362 41.4094 65.8306 39.375 72.0081 39.375C78.1856 39.375 83.125 44.2575 83.125 55.2475V74.375Z" fill="#C4C4C4"/>
</svg>
